<svg width="1920" preserveAspectRatio="none" height="112" viewBox="0 0 1922 149" fill="none" xmlns="http://www.w3.org/2000/svg">
<path d="M578.602 124L522.543 92H35L1 60V36L645.672 54L685.713 36H956.996H1228.28L1270.32 54L1921 36V62L1890 92H1395.45L1335.39 124L956.996 148L578.602 124Z" fill="url(#paint0_linear_410_4678)" fill-opacity="0.4"/>
<path d="M525 92L580.799 123.885C580.931 123.961 581.079 124.005 581.231 124.015L959 148L1336.78 124.014C1336.93 124.005 1337.07 123.965 1337.19 123.898L1397 92" stroke="url(#paint1_linear_410_4678)" stroke-width="2"/>
<path opacity="0.6" d="M523 100L578.799 131.885C578.931 131.961 579.079 132.005 579.231 132.015L673.5 138" stroke="url(#paint2_linear_410_4678)" stroke-width="2"/>
<path opacity="0.6" d="M1396.5 101L1340.7 132.885C1340.57 132.961 1340.42 133.005 1340.27 133.015L1246 139" stroke="url(#paint3_linear_410_4678)" stroke-width="2"/>
<path d="M864.5 142L959 148L1053.5 142" stroke="url(#paint4_linear_410_4678)" stroke-width="2"/>
<path d="M1 77L28.7071 104.707C28.8946 104.895 29.149 105 29.4142 105H516.734C516.908 105 517.079 105.045 517.231 105.132L573 137" stroke="url(#paint5_linear_410_4678)" stroke-width="2"/>
<path d="M1921 77L1893.29 104.707C1893.11 104.895 1892.85 105 1892.59 105H1405.27C1405.09 105 1404.92 105.045 1404.77 105.132L1349 137" stroke="url(#paint6_linear_410_4678)" stroke-width="2"/>
<path d="M650.349 56L1 34V0H1921V34L1265.64 56L1227.56 34H686.428L650.349 56Z" fill="#2780B7" fill-opacity="0.6"/>
<path opacity="0.6" d="M648.349 56L686.196 34.1341C686.348 34.0463 686.52 34 686.696 34H741.71" stroke="url(#paint7_linear_410_4678)" stroke-width="2"/>
<path opacity="0.6" d="M1265.71 56L1227.86 34.1341C1227.71 34.0463 1227.54 34 1227.36 34H1172.35" stroke="url(#paint8_linear_410_4678)" stroke-width="2"/>
<path d="M960.313 134.649C960.699 134.285 961.301 134.285 961.687 134.649L968.698 141.273C969.356 141.894 968.916 143 968.012 143H953.988C953.084 143 952.644 141.894 953.302 141.273L960.313 134.649Z" fill="white"/>
<path d="M587 118L946.571 140.973C946.845 140.99 947.114 140.894 947.315 140.707L960.307 128.643C960.696 128.282 961.299 128.288 961.681 128.656L974.182 140.694C974.385 140.889 974.66 140.99 974.94 140.972L1332 118" stroke="url(#paint9_linear_410_4678)" stroke-width="2"/>
<path d="M857.12 98.264L856.112 99.56C853.84 102.44 852.304 104.344 851.504 105.272H861.344V110.6H821.744V105.272H831.632C831.024 104.504 830.496 103.848 830.048 103.304C828.32 101.096 827.04 99.512 826.208 98.552L828.848 96.2H824.288V90.728H838.544V87.176H829.52V84.296C827.248 85.704 824.816 87.016 822.224 88.232L819.584 82.664C828.64 78.92 835.248 74.136 839.408 68.312H843.968C846.016 71.16 848.704 73.784 852.032 76.184C855.36 78.552 859.2 80.6 863.552 82.328L861.152 87.944C858.656 86.92 856.128 85.624 853.568 84.056V87.176H844.544V90.728H858.848V96.2H854.336L857.12 98.264ZM833.504 81.656H849.872C846.512 79.288 843.76 76.936 841.616 74.6C839.792 76.776 837.088 79.128 833.504 81.656ZM831.152 96.2C833.264 98.696 835.072 100.872 836.576 102.728L833.456 105.272H838.544V96.2H831.152ZM844.544 96.2V105.272H849.392L846.416 102.584C848.272 100.504 850.016 98.376 851.648 96.2H844.544ZM906.242 111.272C906.114 110.504 905.89 109.48 905.57 108.2C903.202 108.392 900.498 108.632 897.458 108.92C894.418 109.208 891.954 109.448 890.066 109.64L889.586 104.216L896.594 103.736V95.624H890.546V75.656H896.594V68.984L901.346 69.224V75.656H907.682V95.624H901.346V103.352L904.13 103.112C903.426 100.904 902.914 99.384 902.594 98.552L907.01 97.256C907.554 98.6 908.226 100.584 909.026 103.208C909.858 105.8 910.45 107.896 910.802 109.496L906.242 111.272ZM889.346 75.176H867.698V70.52H889.346V75.176ZM869.954 87.224V76.712H887.762V87.224H869.954ZM896.594 80.792H894.866V90.536H896.594V80.792ZM901.346 90.536H902.978V80.792H901.346V90.536ZM874.754 82.856H882.962V81.128H874.754V82.856ZM868.13 111.416V88.712H889.202V106.472C889.202 108.104 888.898 109.288 888.29 110.024C887.682 110.792 886.674 111.256 885.266 111.416L883.298 111.656L881.81 107L883.154 106.808C883.762 106.712 884.194 106.536 884.45 106.28C884.738 106.024 884.882 105.56 884.882 104.888V93.176H876.674L878.834 97.064L876.05 98.456H878.546C879.538 96.664 880.322 94.936 880.898 93.272L884.642 94.856C884.13 95.944 883.506 97.144 882.77 98.456H883.922V102.824H880.946V110.12H876.674V102.824H873.842V98.456H875.33C874.402 96.696 873.762 95.512 873.41 94.904L876.434 93.176H872.93V111.416H868.13ZM956.66 79.4H938.996V83.336H953.348V101.048C953.348 102.424 953.124 103.544 952.676 104.408C952.26 105.24 951.492 105.896 950.372 106.376C949.284 106.856 947.716 107.192 945.668 107.384L942.452 107.672L940.58 101.432L944.756 101.048C945.748 100.92 946.404 100.632 946.724 100.184C947.044 99.736 947.22 98.888 947.252 97.64V89.192H938.996V111.224H932.996V89.192H925.316V106.568H919.316V83.336H932.996V79.4H915.284V73.832H933.044L931.748 68.792L938.084 68.504L939.284 73.832H956.66V79.4ZM987.974 83.672H1002.95L1001.56 104.696C1001.37 106.168 1001.06 107.304 1000.65 108.104C1000.23 108.904 999.574 109.512 998.678 109.928C997.782 110.376 996.486 110.696 994.79 110.888L991.43 111.224L989.606 105.272L993.638 104.888C994.502 104.792 995.094 104.536 995.414 104.12C995.766 103.704 995.99 102.968 996.086 101.912C996.214 100.376 996.374 98.328 996.566 95.768C996.79 93.208 996.966 90.984 997.094 89.096H994.838C993.366 98.984 989.382 106.744 982.886 112.376L978.566 108.44C984.55 103.768 988.294 97.32 989.798 89.096H986.87C984.822 96.36 981.238 102.504 976.118 107.528L971.75 103.928C973.126 102.712 974.262 101.592 975.158 100.568C973.43 101.336 971.35 102.152 968.918 103.016C966.486 103.88 964.31 104.552 962.39 105.032L961.478 99.416C962.982 99.096 964.87 98.568 967.142 97.832V84.68H962.918V79.016H967.142V68.888L972.95 69.128V79.016H976.598V84.68H972.95V95.864C974.006 95.48 974.838 95.144 975.446 94.856L975.926 99.656C978.486 96.488 980.406 92.968 981.686 89.096H977.51V83.672L989.75 76.232H979.478V70.568H999.686V76.232L987.974 83.672ZM1049.82 76.472L1048.95 105.368C1048.86 107.288 1048.36 108.632 1047.46 109.4C1046.6 110.168 1045.18 110.648 1043.19 110.84L1039.06 111.272L1037.29 105.56L1041.08 105.176C1041.82 105.08 1042.33 104.856 1042.62 104.504C1042.94 104.12 1043.13 103.352 1043.19 102.2C1043.58 94.904 1043.83 88.28 1043.96 82.328H1039.88L1039.83 83.624C1039.77 85.544 1039.74 86.952 1039.74 87.848C1039.7 91.528 1039.54 94.568 1039.26 96.968C1038.97 99.336 1038.23 101.864 1037.05 104.552C1035.86 107.208 1034.02 109.912 1031.53 112.664L1026.34 109.448C1027.69 108.168 1028.81 106.904 1029.7 105.656L1026.82 107.144L1026.15 105.272C1022.5 105.912 1019 106.472 1015.64 106.952C1015.13 107.048 1014.39 107.16 1013.43 107.288C1012.57 107.448 1012.04 107.56 1011.85 107.624L1010.22 101.816C1010.98 101.368 1011.62 100.696 1012.14 99.8C1012.71 98.808 1013.42 97.32 1014.25 95.336C1015.11 93.32 1015.85 91.176 1016.46 88.904H1010.41V83H1030.04V88.904H1022.46C1021.88 90.792 1021.14 92.904 1020.25 95.24C1019.35 97.544 1018.55 99.448 1017.85 100.952C1020.82 100.472 1022.94 100.088 1024.18 99.8C1023.26 97.336 1022.47 95.336 1021.83 93.8L1026.97 91.592C1027.74 93.256 1028.87 95.992 1030.38 99.8L1031.53 102.68C1032.23 101.304 1032.74 99.88 1033.06 98.408C1033.42 96.936 1033.64 95.448 1033.74 93.944C1033.83 92.44 1033.93 90.296 1034.02 87.512L1034.12 84.056L1034.17 82.328H1029.94V76.472H1034.26L1034.36 68.936L1040.12 69.224C1040.12 71.432 1040.09 73.848 1040.02 76.472H1049.82ZM1012.47 71.336H1028.6V77.096H1012.47V71.336ZM1055.59 88.616C1060.3 87.208 1063.95 85.704 1066.54 84.104C1069.13 82.504 1071.03 80.712 1072.25 78.728H1058.52V73.112H1074.17C1074.43 71.48 1074.59 69.96 1074.65 68.552L1080.75 68.888C1080.71 69.592 1080.55 71 1080.27 73.112H1097.02V78.728H1082.67C1086.28 83.016 1091.96 86.2 1099.71 88.28L1097.31 94.424C1093.02 93.112 1089.19 91.336 1085.83 89.096C1082.47 86.856 1079.75 84.328 1077.67 81.512C1077.16 82.44 1076.59 83.288 1075.95 84.056C1077.96 85.688 1079.51 87.08 1080.6 88.232L1077.39 92.6C1076.84 92.024 1076.04 91.272 1074.99 90.344C1073.96 89.416 1072.97 88.568 1072.01 87.8C1068.84 90.2 1064.49 92.44 1058.95 94.52L1055.59 88.616ZM1078.87 92.264C1079.51 92.936 1080.41 94.04 1081.56 95.576C1082.71 97.112 1083.61 98.408 1084.25 99.464L1080.07 103.064C1079.34 101.848 1078.44 100.456 1077.39 98.888C1076.33 97.32 1075.5 96.168 1074.89 95.432L1078.87 92.264ZM1091.83 93.128C1092.89 94.504 1094.22 96.424 1095.82 98.888C1097.42 101.352 1098.68 103.432 1099.61 105.128L1094.71 108.632C1093.79 106.712 1092.6 104.52 1091.16 102.056C1089.75 99.592 1088.51 97.64 1087.42 96.2L1091.83 93.128ZM1084.3 100.52L1089.58 102.392C1089.48 103.736 1089.31 105.08 1089.05 106.424C1088.79 107.768 1088.46 108.76 1088.04 109.4C1087.63 110.04 1086.99 110.472 1086.12 110.696C1085.26 110.92 1083.93 111.08 1082.14 111.176C1081.15 111.24 1079.63 111.272 1077.58 111.272C1075.56 111.272 1074.04 111.24 1073.02 111.176C1070.84 111.08 1069.31 110.6 1068.41 109.736C1067.51 108.904 1067.07 107.48 1067.07 105.464V93.608L1072.87 93.848V103.448C1072.87 104.408 1073 105.048 1073.26 105.368C1073.51 105.656 1074.04 105.832 1074.84 105.896C1076.31 105.96 1077.4 105.992 1078.11 105.992C1078.84 105.992 1079.91 105.96 1081.32 105.896C1082.06 105.832 1082.57 105.768 1082.86 105.704C1083.15 105.64 1083.37 105.48 1083.53 105.224C1083.69 104.968 1083.82 104.536 1083.91 103.928C1084.14 102.584 1084.27 101.448 1084.3 100.52ZM1055.74 106.424C1056.76 104.696 1057.79 102.712 1058.81 100.472C1059.83 98.232 1060.67 96.088 1061.31 94.04L1066.54 96.008C1065.87 98.088 1064.99 100.344 1063.9 102.776C1062.81 105.176 1061.75 107.304 1060.73 109.16L1055.74 106.424Z" fill="url(#paint10_linear_410_4678)"/>
<path d="M786 69C786 66.7909 784.209 65 782 65H780C778.895 65 778 65.8954 778 67V89.6909C778 91.0549 778.695 92.3248 779.844 93.06L782.922 95.03C784.253 95.882 786 94.926 786 93.3455V69Z" fill="url(#paint11_linear_410_4678)"/>
<path d="M770 69C770 66.7909 768.209 65 766 65H764C762.895 65 762 65.8954 762 67V82.1379C762 84.0497 763.353 85.6943 765.229 86.0628L767.615 86.5314C768.85 86.7741 770 85.8282 770 84.5689V69Z" fill="url(#paint12_linear_410_4678)"/>
<path d="M754 69C754 66.7909 752.209 65 750 65H748C746.895 65 746 65.8954 746 67V73.5089C746 75.5396 747.522 77.248 749.539 77.4822L751.769 77.7411C752.957 77.879 754 76.9504 754 75.7544V69Z" fill="url(#paint13_linear_410_4678)"/>
<path d="M1134 63C1134 60.7909 1135.79 59 1138 59H1140C1141.1 59 1142 59.8954 1142 61V83.6909C1142 85.0549 1141.31 86.3248 1140.16 87.06L1137.08 89.03C1135.75 89.882 1134 88.926 1134 87.3455V63Z" fill="url(#paint14_linear_410_4678)"/>
<path d="M1150 63C1150 60.7909 1151.79 59 1154 59H1156C1157.1 59 1158 59.8954 1158 61V77.0951C1158 78.9941 1156.66 80.6313 1154.8 81.0133L1152.4 81.5067C1151.16 81.7614 1150 80.8138 1150 79.5476V63Z" fill="url(#paint15_linear_410_4678)"/>
<path d="M1166 63C1166 60.7909 1167.79 59 1170 59H1172C1173.1 59 1174 59.8954 1174 61V67.5089C1174 69.5396 1172.48 71.248 1170.46 71.4822L1168.23 71.7411C1167.04 71.879 1166 70.9504 1166 69.7544V63Z" fill="url(#paint16_linear_410_4678)"/>
<path opacity="0.3" d="M590.033 108.543L568.734 94.4992C568.581 94.3982 568.403 94.3413 568.22 94.3347L562.5 94.1271C561.495 94.0906 561.071 95.3942 561.906 95.956L582.762 109.995C582.918 110.1 583.099 110.159 583.286 110.165L589.448 110.377C590.457 110.412 590.876 109.099 590.033 108.543Z" fill="url(#paint17_radial_410_4678)"/>
<path opacity="0.3" d="M609.033 108.543L587.734 94.4992C587.581 94.3982 587.403 94.3413 587.22 94.3347L581.5 94.1271C580.495 94.0906 580.071 95.3942 580.906 95.956L601.762 109.995C601.918 110.1 602.099 110.159 602.286 110.165L608.448 110.377C609.457 110.412 609.876 109.099 609.033 108.543Z" fill="url(#paint18_radial_410_4678)"/>
<path opacity="0.3" d="M628.033 108.543L606.734 94.4992C606.581 94.3982 606.403 94.3413 606.22 94.3347L600.5 94.1271C599.495 94.0906 599.071 95.3942 599.906 95.956L620.762 109.995C620.918 110.1 621.099 110.159 621.286 110.165L627.448 110.377C628.457 110.412 628.876 109.099 628.033 108.543Z" fill="url(#paint19_radial_410_4678)"/>
<path opacity="0.3" d="M1336.97 108.543L1358.27 94.4992C1358.42 94.3982 1358.6 94.3413 1358.78 94.3347L1364.5 94.1271C1365.5 94.0906 1365.93 95.3942 1365.09 95.956L1344.24 109.995C1344.08 110.1 1343.9 110.159 1343.71 110.165L1337.55 110.377C1336.54 110.412 1336.12 109.099 1336.97 108.543Z" fill="url(#paint20_radial_410_4678)"/>
<path opacity="0.3" d="M1317.97 108.543L1339.27 94.4992C1339.42 94.3982 1339.6 94.3413 1339.78 94.3347L1345.5 94.1271C1346.5 94.0906 1346.93 95.3942 1346.09 95.956L1325.24 109.995C1325.08 110.1 1324.9 110.159 1324.71 110.165L1318.55 110.377C1317.54 110.412 1317.12 109.099 1317.97 108.543Z" fill="url(#paint21_radial_410_4678)"/>
<path opacity="0.3" d="M1298.97 108.543L1320.27 94.4992C1320.42 94.3982 1320.6 94.3413 1320.78 94.3347L1326.5 94.1271C1327.5 94.0906 1327.93 95.3942 1327.09 95.956L1306.24 109.995C1306.08 110.1 1305.9 110.159 1305.71 110.165L1299.55 110.377C1298.54 110.412 1298.12 109.099 1298.97 108.543Z" fill="url(#paint22_radial_410_4678)"/>
<defs>
<linearGradient id="paint0_linear_410_4678" x1="958.998" y1="148" x2="958.998" y2="36" gradientUnits="userSpaceOnUse">
<stop stop-color="#3DA1E7" stop-opacity="0.8"/>
<stop offset="1" stop-color="#61AADD" stop-opacity="0.3"/>
</linearGradient>
<linearGradient id="paint1_linear_410_4678" x1="9" y1="106" x2="1911" y2="106" gradientUnits="userSpaceOnUse">
<stop stop-color="#1BA6FF" stop-opacity="0.1"/>
<stop offset="0.274" stop-color="#2CB1F8" stop-opacity="0.6"/>
<stop offset="0.503155" stop-color="#3EBDF1"/>
<stop offset="0.732913" stop-color="#13A6FB" stop-opacity="0.6"/>
<stop offset="1" stop-color="#009CFF" stop-opacity="0.1"/>
</linearGradient>
<linearGradient id="paint2_linear_410_4678" x1="523" y1="100" x2="673" y2="138" gradientUnits="userSpaceOnUse">
<stop stop-color="white" stop-opacity="0.1"/>
<stop offset="0.49123" stop-color="white"/>
<stop offset="1" stop-color="white" stop-opacity="0.1"/>
</linearGradient>
<linearGradient id="paint3_linear_410_4678" x1="1396.5" y1="101" x2="1246.5" y2="139" gradientUnits="userSpaceOnUse">
<stop stop-color="white" stop-opacity="0.1"/>
<stop offset="0.49123" stop-color="white"/>
<stop offset="1" stop-color="white" stop-opacity="0.1"/>
</linearGradient>
<linearGradient id="paint4_linear_410_4678" x1="915.5" y1="145" x2="1006.5" y2="145" gradientUnits="userSpaceOnUse">
<stop stop-color="white" stop-opacity="0.1"/>
<stop offset="0.503155" stop-color="white"/>
<stop offset="1" stop-color="white" stop-opacity="0.1"/>
</linearGradient>
<linearGradient id="paint5_linear_410_4678" x1="1" y1="119" x2="1903" y2="119" gradientUnits="userSpaceOnUse">
<stop stop-color="#1BA6FF" stop-opacity="0.1"/>
<stop offset="0.274" stop-color="#2CB1F8" stop-opacity="0.6"/>
<stop offset="0.503155" stop-color="#3EBDF1"/>
<stop offset="0.732913" stop-color="#13A6FB" stop-opacity="0.6"/>
<stop offset="1" stop-color="#009CFF" stop-opacity="0.1"/>
</linearGradient>
<linearGradient id="paint6_linear_410_4678" x1="1921" y1="119" x2="19" y2="119" gradientUnits="userSpaceOnUse">
<stop stop-color="#1BA6FF" stop-opacity="0.1"/>
<stop offset="0.274" stop-color="#2CB1F8" stop-opacity="0.6"/>
<stop offset="0.503155" stop-color="#3EBDF1"/>
<stop offset="0.732913" stop-color="#13A6FB" stop-opacity="0.6"/>
<stop offset="1" stop-color="#009CFF" stop-opacity="0.1"/>
</linearGradient>
<linearGradient id="paint7_linear_410_4678" x1="648" y1="56" x2="742" y2="34" gradientUnits="userSpaceOnUse">
<stop stop-color="white" stop-opacity="0.1"/>
<stop offset="0.503155" stop-color="white"/>
<stop offset="1" stop-color="white" stop-opacity="0.1"/>
</linearGradient>
<linearGradient id="paint8_linear_410_4678" x1="1266" y1="56" x2="1172" y2="34" gradientUnits="userSpaceOnUse">
<stop stop-color="white" stop-opacity="0.1"/>
<stop offset="0.503155" stop-color="white"/>
<stop offset="1" stop-color="white" stop-opacity="0.1"/>
</linearGradient>
<linearGradient id="paint9_linear_410_4678" x1="593.221" y1="129.5" x2="1319.56" y2="129.5" gradientUnits="userSpaceOnUse">
<stop stop-color="#1BA6FF" stop-opacity="0.1"/>
<stop offset="0.274" stop-color="#2CB1F8" stop-opacity="0.6"/>
<stop offset="0.503155" stop-color="#3EBDF1"/>
<stop offset="0.732913" stop-color="#13A6FB" stop-opacity="0.6"/>
<stop offset="1" stop-color="#009CFF" stop-opacity="0.1"/>
</linearGradient>
<linearGradient id="paint10_linear_410_4678" x1="960" y1="107" x2="960" y2="66" gradientUnits="userSpaceOnUse">
<stop stop-color="#5AE0F3"/>
<stop offset="1" stop-color="white"/>
</linearGradient>
<linearGradient id="paint11_linear_410_4678" x1="782" y1="71.4" x2="782" y2="97" gradientUnits="userSpaceOnUse">
<stop stop-color="#2382C3" stop-opacity="0.6"/>
<stop offset="1" stop-color="white" stop-opacity="0.8"/>
</linearGradient>
<linearGradient id="paint12_linear_410_4678" x1="766" y1="65" x2="766" y2="90.1429" gradientUnits="userSpaceOnUse">
<stop stop-color="#1A6598" stop-opacity="0.6"/>
<stop offset="0.0001" stop-color="#2382C3" stop-opacity="0.6"/>
<stop offset="1" stop-color="white" stop-opacity="0.8"/>
</linearGradient>
<linearGradient id="paint13_linear_410_4678" x1="750" y1="65" x2="750" y2="79.8571" gradientUnits="userSpaceOnUse">
<stop stop-color="#1A6598" stop-opacity="0.6"/>
<stop offset="0.0001" stop-color="#2382C3" stop-opacity="0.6"/>
<stop offset="1" stop-color="white" stop-opacity="0.8"/>
</linearGradient>
<linearGradient id="paint14_linear_410_4678" x1="1138" y1="65.4" x2="1138" y2="91" gradientUnits="userSpaceOnUse">
<stop stop-color="#2382C3" stop-opacity="0.6"/>
<stop offset="1" stop-color="white" stop-opacity="0.8"/>
</linearGradient>
<linearGradient id="paint15_linear_410_4678" x1="1154" y1="59" x2="1154" y2="85.2857" gradientUnits="userSpaceOnUse">
<stop stop-color="#1A6598" stop-opacity="0.6"/>
<stop offset="0.0001" stop-color="#2382C3" stop-opacity="0.6"/>
<stop offset="1" stop-color="white" stop-opacity="0.8"/>
</linearGradient>
<linearGradient id="paint16_linear_410_4678" x1="1170" y1="59" x2="1170" y2="73.8571" gradientUnits="userSpaceOnUse">
<stop stop-color="#1A6598" stop-opacity="0.6"/>
<stop offset="0.0001" stop-color="#2382C3" stop-opacity="0.6"/>
<stop offset="1" stop-color="white" stop-opacity="0.8"/>
</linearGradient>
<radialGradient id="paint17_radial_410_4678" cx="0" cy="0" r="1" gradientUnits="userSpaceOnUse" gradientTransform="translate(539.25 113.145) rotate(-88.1315) scale(23.0019 149.316)">
<stop stop-color="#E4F2FC"/>
<stop offset="1" stop-color="#63B6F1" stop-opacity="0"/>
</radialGradient>
<radialGradient id="paint18_radial_410_4678" cx="0" cy="0" r="1" gradientUnits="userSpaceOnUse" gradientTransform="translate(558.25 113.145) rotate(-88.1315) scale(23.0019 149.316)">
<stop stop-color="#E4F2FC"/>
<stop offset="1" stop-color="#63B6F1" stop-opacity="0"/>
</radialGradient>
<radialGradient id="paint19_radial_410_4678" cx="0" cy="0" r="1" gradientUnits="userSpaceOnUse" gradientTransform="translate(577.25 113.145) rotate(-88.1315) scale(23.0019 149.316)">
<stop stop-color="#E4F2FC"/>
<stop offset="1" stop-color="#63B6F1" stop-opacity="0"/>
</radialGradient>
<radialGradient id="paint20_radial_410_4678" cx="0" cy="0" r="1" gradientUnits="userSpaceOnUse" gradientTransform="translate(1387.75 113.145) rotate(-91.8685) scale(23.0019 149.316)">
<stop stop-color="#E4F2FC"/>
<stop offset="1" stop-color="#63B6F1" stop-opacity="0"/>
</radialGradient>
<radialGradient id="paint21_radial_410_4678" cx="0" cy="0" r="1" gradientUnits="userSpaceOnUse" gradientTransform="translate(1368.75 113.145) rotate(-91.8685) scale(23.0019 149.316)">
<stop stop-color="#E4F2FC"/>
<stop offset="1" stop-color="#63B6F1" stop-opacity="0"/>
</radialGradient>
<radialGradient id="paint22_radial_410_4678" cx="0" cy="0" r="1" gradientUnits="userSpaceOnUse" gradientTransform="translate(1349.75 113.145) rotate(-91.8685) scale(23.0019 149.316)">
<stop stop-color="#E4F2FC"/>
<stop offset="1" stop-color="#63B6F1" stop-opacity="0"/>
</radialGradient>
</defs>
</svg>
