<svg width="1840" height="802" viewBox="0 0 1840 802" fill="none" xmlns="http://www.w3.org/2000/svg">
<path d="M6 36.6625H325.967L354.073 16.99H1837" stroke="url(#paint0_linear_410_4883)"/>
<path opacity="0.4" d="M338 33.9798H1837V21.4609H355.686L338 33.9798Z" fill="url(#paint1_linear_410_4883)"/>
<path opacity="0.8" d="M324 31.2973H3V8.94214H356.5L324 31.2973Z" fill="url(#paint2_linear_410_4883)"/>
<path d="M3 31.2974H324L355 9.83643" stroke="url(#paint3_linear_410_4883)" stroke-width="2"/>
<path opacity="0.6" d="M323.554 31.2973H2.5V8.94214H356L323.554 31.2973Z" fill="url(#paint4_radial_410_4883)"/>
<rect x="1" y="41" width="1838" height="760" rx="3" stroke="url(#paint5_linear_410_4883)" stroke-width="2"/>
<path d="M8 31.2971L168.952 31.2971L320 31.2971" stroke="url(#paint6_linear_410_4883)" stroke-width="2"/>
<path d="M26.2081 10.7305L30.0111 10.7305V15.4088L30.0111 20.7305L22 10.7305L26.2081 10.7305Z" fill="#E3B308"/>
<path d="M33.7919 10.7305L29.9889 10.7305L29.9889 15.4088L29.9889 20.7305L38 10.7305L33.7919 10.7305Z" fill="#E9DF0D"/>
<path d="M26.2081 10.7305L30.0111 10.7305V6.05209L30.0111 0.730472L22 10.7305L26.2081 10.7305Z" fill="#E8D950"/>
<path d="M33.7919 10.7305L29.9889 10.7305L29.9889 6.05209L29.9889 0.730472L38 10.7305L33.7919 10.7305Z" fill="#FFFDDD"/>
<defs>
<linearGradient id="paint0_linear_410_4883" x1="20.5431" y1="26.8263" x2="1718.45" y2="26.8263" gradientUnits="userSpaceOnUse">
<stop stop-color="#1BA6FF" stop-opacity="0.1"/>
<stop offset="0.274" stop-color="#2CB1F8" stop-opacity="0.6"/>
<stop offset="0.503155" stop-color="#3EBDF1"/>
<stop offset="0.732913" stop-color="#13A6FB" stop-opacity="0.6"/>
<stop offset="1" stop-color="#009CFF" stop-opacity="0.1"/>
</linearGradient>
<linearGradient id="paint1_linear_410_4883" x1="288" y1="27.7204" x2="1212" y2="27.7204" gradientUnits="userSpaceOnUse">
<stop stop-color="#0794CC"/>
<stop offset="0.269" stop-color="#0773A3" stop-opacity="0.551"/>
<stop offset="1" stop-color="#084A71" stop-opacity="0"/>
</linearGradient>
<linearGradient id="paint2_linear_410_4883" x1="267" y1="31.2973" x2="265.8" y2="8.92606" gradientUnits="userSpaceOnUse">
<stop stop-color="#0794CC"/>
<stop offset="1" stop-color="#084A71" stop-opacity="0"/>
</linearGradient>
<linearGradient id="paint3_linear_410_4883" x1="5.79584" y1="20.5669" x2="332.21" y2="20.5669" gradientUnits="userSpaceOnUse">
<stop stop-color="#1BA6FF" stop-opacity="0.1"/>
<stop offset="0.274" stop-color="#2CB1F8" stop-opacity="0.6"/>
<stop offset="0.503155" stop-color="#3EBDF1"/>
<stop offset="0.732913" stop-color="#13A6FB" stop-opacity="0.6"/>
<stop offset="1" stop-color="#009CFF" stop-opacity="0.1"/>
</linearGradient>
<radialGradient id="paint4_radial_410_4883" cx="0" cy="0" r="1" gradientUnits="userSpaceOnUse" gradientTransform="translate(143.273 31.2973) rotate(-89.6804) scale(40.687 461.813)">
<stop stop-color="#3AB6EA"/>
<stop offset="0.307152" stop-color="#0AB4FD" stop-opacity="0.1"/>
<stop offset="1" stop-color="#0AB4FD" stop-opacity="0"/>
</radialGradient>
<linearGradient id="paint5_linear_410_4883" x1="997.426" y1="40" x2="997.426" y2="802" gradientUnits="userSpaceOnUse">
<stop stop-color="#1BA6FF" stop-opacity="0.4"/>
<stop offset="0.573171" stop-color="#2DB2F8" stop-opacity="0.6"/>
<stop offset="1" stop-color="#3EBDF1"/>
</linearGradient>
<linearGradient id="paint6_linear_410_4883" x1="42.2727" y1="31.2971" x2="243.182" y2="31.2971" gradientUnits="userSpaceOnUse">
<stop stop-color="white" stop-opacity="0"/>
<stop offset="0.503155" stop-color="white"/>
<stop offset="1" stop-color="white" stop-opacity="0"/>
</linearGradient>
</defs>
</svg>
