<svg width="592" height="381" viewBox="0 0 592 381" fill="none" xmlns="http://www.w3.org/2000/svg">
<path d="M6 41H325.967L354.073 19H591" stroke="url(#paint0_linear_410_4819)"/>
<path opacity="0.4" d="M338 38H591V24H355.686L338 38Z" fill="url(#paint1_linear_410_4819)"/>
<path opacity="0.8" d="M324 35H3V10H356.5L324 35Z" fill="url(#paint2_linear_410_4819)"/>
<path d="M3 35H324L355 11" stroke="url(#paint3_linear_410_4819)" stroke-width="2"/>
<path opacity="0.6" d="M323.554 35H2.5V10H356L323.554 35Z" fill="url(#paint4_radial_410_4819)"/>
<rect x="1" y="46" width="590" height="334" rx="3" stroke="url(#paint5_linear_410_4819)" stroke-width="2"/>
<path d="M8 35L168.952 35L320 35" stroke="url(#paint6_linear_410_4819)" stroke-width="2"/>
<path d="M26.208 10L30.011 10V14.6784L30.011 20L21.9999 10L26.208 10Z" fill="#E3B308"/>
<path d="M33.792 10L29.989 10L29.989 14.6784L29.989 20L38.0001 10L33.792 10Z" fill="#E9DF0D"/>
<path d="M26.208 10L30.011 10V5.32162L30.011 3.1339e-06L21.9999 10L26.208 10Z" fill="#E8D950"/>
<path d="M33.792 10L29.989 10L29.989 5.32162L29.989 3.1339e-06L38.0001 10L33.792 10Z" fill="#FFFDDD"/>
<defs>
<linearGradient id="paint0_linear_410_4819" x1="10.6465" y1="30" x2="553.124" y2="30" gradientUnits="userSpaceOnUse">
<stop stop-color="#1BA6FF" stop-opacity="0.1"/>
<stop offset="0.274" stop-color="#2CB1F8" stop-opacity="0.6"/>
<stop offset="0.503155" stop-color="#3EBDF1"/>
<stop offset="0.732913" stop-color="#13A6FB" stop-opacity="0.6"/>
<stop offset="1" stop-color="#009CFF" stop-opacity="0.1"/>
</linearGradient>
<linearGradient id="paint1_linear_410_4819" x1="288" y1="31" x2="1212" y2="31" gradientUnits="userSpaceOnUse">
<stop stop-color="#0794CC"/>
<stop offset="0.269" stop-color="#0773A3" stop-opacity="0.551"/>
<stop offset="1" stop-color="#084A71" stop-opacity="0"/>
</linearGradient>
<linearGradient id="paint2_linear_410_4819" x1="267" y1="35" x2="265.5" y2="10" gradientUnits="userSpaceOnUse">
<stop stop-color="#0794CC"/>
<stop offset="1" stop-color="#084A71" stop-opacity="0"/>
</linearGradient>
<linearGradient id="paint3_linear_410_4819" x1="5.79584" y1="23" x2="332.21" y2="23" gradientUnits="userSpaceOnUse">
<stop stop-color="#1BA6FF" stop-opacity="0.1"/>
<stop offset="0.274" stop-color="#2CB1F8" stop-opacity="0.6"/>
<stop offset="0.503155" stop-color="#3EBDF1"/>
<stop offset="0.732913" stop-color="#13A6FB" stop-opacity="0.6"/>
<stop offset="1" stop-color="#009CFF" stop-opacity="0.1"/>
</linearGradient>
<radialGradient id="paint4_radial_410_4819" cx="0" cy="0" r="1" gradientUnits="userSpaceOnUse" gradientTransform="translate(143.273 35) rotate(-89.7142) scale(45.5006 461.815)">
<stop stop-color="#3AB6EA"/>
<stop offset="0.307152" stop-color="#0AB4FD" stop-opacity="0.1"/>
<stop offset="1" stop-color="#0AB4FD" stop-opacity="0"/>
</radialGradient>
<linearGradient id="paint5_linear_410_4819" x1="320.911" y1="45" x2="320.911" y2="381" gradientUnits="userSpaceOnUse">
<stop stop-color="#1BA6FF" stop-opacity="0.4"/>
<stop offset="0.573171" stop-color="#2DB2F8" stop-opacity="0.6"/>
<stop offset="1" stop-color="#3EBDF1"/>
</linearGradient>
<linearGradient id="paint6_linear_410_4819" x1="42.2727" y1="35" x2="243.182" y2="35" gradientUnits="userSpaceOnUse">
<stop stop-color="white" stop-opacity="0"/>
<stop offset="0.503155" stop-color="white"/>
<stop offset="1" stop-color="white" stop-opacity="0"/>
</linearGradient>
</defs>
</svg>
