<svg width="904" height="381" viewBox="0 0 904 381" fill="none" xmlns="http://www.w3.org/2000/svg">
<path d="M6 41H325.967L354.073 19H904" stroke="url(#paint0_linear_410_4968)"/>
<path opacity="0.4" d="M338 38H901V24H355.686L338 38Z" fill="url(#paint1_linear_410_4968)"/>
<path opacity="0.8" d="M324 35H3V10H356.5L324 35Z" fill="url(#paint2_linear_410_4968)"/>
<path d="M3 35H324L355 11" stroke="url(#paint3_linear_410_4968)" stroke-width="2"/>
<path opacity="0.6" d="M323.554 35H2.5V10H356L323.554 35Z" fill="url(#paint4_radial_410_4968)"/>
<rect x="1" y="46" width="902" height="334" rx="3" stroke="url(#paint5_linear_410_4968)" stroke-width="2"/>
<path d="M8 35L168.952 35L320 35" stroke="url(#paint6_linear_410_4968)" stroke-width="2"/>
<path d="M26.208 10L30.011 10V14.6784L30.011 20L21.9999 10L26.208 10Z" fill="#E3B308"/>
<path d="M33.792 10L29.989 10L29.989 14.6784L29.989 20L38.0001 10L33.792 10Z" fill="#E9DF0D"/>
<path d="M26.208 10L30.011 10V5.32162L30.011 3.1339e-06L21.9999 10L26.208 10Z" fill="#E8D950"/>
<path d="M33.792 10L29.989 10L29.989 5.32162L29.989 3.1339e-06L38.0001 10L33.792 10Z" fill="#FFFDDD"/>
<path d="M855.64 28.36C853.752 28.232 852.189 28.0453 850.952 27.8C849.725 27.5653 848.648 27.2347 847.72 26.808C847.165 27.2133 846.456 27.5707 845.592 27.88C844.728 28.2 843.645 28.5093 842.344 28.808L841.768 27.464C842.909 27.1973 843.837 26.952 844.552 26.728C845.267 26.504 845.853 26.264 846.312 26.008C845.619 25.5387 844.941 24.9733 844.28 24.312L845.128 23.464H843.4V17.336H848.152V16.12H842.376V14.824H855.416V16.12H849.64V17.336H854.376V23.464H849.56C849.443 24.4133 849.176 25.1867 848.76 25.784C849.592 26.0933 850.584 26.3387 851.736 26.52C852.888 26.7013 854.296 26.8187 855.96 26.872L855.64 28.36ZM848.152 19.784V18.536H844.872V19.784H848.152ZM852.936 19.784V18.536H849.64V19.784H852.936ZM848.152 20.968H844.872V22.232H848.152V22.072V20.968ZM849.64 22.232H852.936V20.968H849.64V22.104V22.232ZM845.32 23.464C846.003 24.1467 846.696 24.7013 847.4 25.128C847.731 24.7227 847.955 24.168 848.072 23.464H845.32ZM871.134 21.288V22.6C870.206 23.592 869.203 24.4507 868.126 25.176C867.049 25.8907 865.726 26.5413 864.158 27.128C862.59 27.7253 860.649 28.2853 858.334 28.808L857.614 27.512C860.761 26.84 863.209 26.1093 864.958 25.32C866.718 24.5307 868.126 23.6133 869.182 22.568H863.998C863.593 22.8453 863.278 23.048 863.054 23.176C863.63 23.496 864.291 23.9067 865.038 24.408L864.174 25.56C863.63 25.112 862.819 24.5627 861.742 23.912C860.942 24.328 859.971 24.7653 858.83 25.224L858.174 24.008C859.571 23.4853 860.862 22.8827 862.046 22.2C863.23 21.5173 864.217 20.8133 865.006 20.088C863.161 20.8773 860.99 21.5547 858.494 22.12L857.854 20.904C862.43 19.9653 865.982 18.5627 868.51 16.696H863.006L862.334 17.16C862.974 17.4693 863.561 17.8053 864.094 18.168L863.278 19.24C862.798 18.8773 862.073 18.44 861.102 17.928C860.43 18.312 859.769 18.664 859.118 18.984L858.318 17.848C859.523 17.272 860.638 16.6373 861.662 15.944C862.686 15.24 863.518 14.5413 864.158 13.848L865.39 14.472C865.113 14.8133 864.825 15.128 864.526 15.416H870.59V16.728C869.15 17.9653 867.443 19.0213 865.47 19.896L866.414 20.504C866.243 20.6853 865.977 20.9467 865.614 21.288H871.134ZM877.137 17.912L885.073 21.144V23.256L877.137 26.488V24.92L883.921 22.2L877.137 19.48V17.912Z" fill="white"/>
<defs>
<linearGradient id="paint0_linear_410_4968" x1="13.1326" y1="30" x2="845.858" y2="30" gradientUnits="userSpaceOnUse">
<stop stop-color="#1BA6FF" stop-opacity="0.1"/>
<stop offset="0.274" stop-color="#2CB1F8" stop-opacity="0.6"/>
<stop offset="0.503155" stop-color="#3EBDF1"/>
<stop offset="0.732913" stop-color="#13A6FB" stop-opacity="0.6"/>
<stop offset="1" stop-color="#009CFF" stop-opacity="0.1"/>
</linearGradient>
<linearGradient id="paint1_linear_410_4968" x1="288" y1="31" x2="1212" y2="31" gradientUnits="userSpaceOnUse">
<stop stop-color="#0794CC"/>
<stop offset="0.269" stop-color="#0773A3" stop-opacity="0.551"/>
<stop offset="1" stop-color="#084A71" stop-opacity="0"/>
</linearGradient>
<linearGradient id="paint2_linear_410_4968" x1="267" y1="35" x2="265.5" y2="10" gradientUnits="userSpaceOnUse">
<stop stop-color="#0794CC"/>
<stop offset="1" stop-color="#084A71" stop-opacity="0"/>
</linearGradient>
<linearGradient id="paint3_linear_410_4968" x1="5.79584" y1="23" x2="332.21" y2="23" gradientUnits="userSpaceOnUse">
<stop stop-color="#1BA6FF" stop-opacity="0.1"/>
<stop offset="0.274" stop-color="#2CB1F8" stop-opacity="0.6"/>
<stop offset="0.503155" stop-color="#3EBDF1"/>
<stop offset="0.732913" stop-color="#13A6FB" stop-opacity="0.6"/>
<stop offset="1" stop-color="#009CFF" stop-opacity="0.1"/>
</linearGradient>
<radialGradient id="paint4_radial_410_4968" cx="0" cy="0" r="1" gradientUnits="userSpaceOnUse" gradientTransform="translate(143.273 35) rotate(-89.7142) scale(45.5006 461.815)">
<stop stop-color="#3AB6EA"/>
<stop offset="0.307152" stop-color="#0AB4FD" stop-opacity="0.1"/>
<stop offset="1" stop-color="#0AB4FD" stop-opacity="0"/>
</radialGradient>
<linearGradient id="paint5_linear_410_4968" x1="490.04" y1="45" x2="490.04" y2="381" gradientUnits="userSpaceOnUse">
<stop stop-color="#1BA6FF" stop-opacity="0.4"/>
<stop offset="0.573171" stop-color="#2DB2F8" stop-opacity="0.6"/>
<stop offset="1" stop-color="#3EBDF1"/>
</linearGradient>
<linearGradient id="paint6_linear_410_4968" x1="42.2727" y1="35" x2="243.182" y2="35" gradientUnits="userSpaceOnUse">
<stop stop-color="white" stop-opacity="0"/>
<stop offset="0.503155" stop-color="white"/>
<stop offset="1" stop-color="white" stop-opacity="0"/>
</linearGradient>
</defs>
</svg>
